<mxfile host="app.diagrams.net" agent="Mozilla/5.0 (Macintosh; Intel Mac OS X 10_15_7) AppleWebKit/537.36 (KHTML, like Gecko) Chrome/130.0.0.0 Safari/537.36" version="24.8.4">
  <diagram name="PÃ¡gina-1" id="UEnsP5aSyQo5osSwmGok">
    <mxGraphModel dx="732" dy="707" grid="1" gridSize="10" guides="1" tooltips="1" connect="1" arrows="1" fold="1" page="1" pageScale="1" pageWidth="827" pageHeight="1169" math="0" shadow="0">
      <root>
        <mxCell id="0" />
        <mxCell id="1" parent="0" />
        <mxCell id="2" value="FraudDetection" style="swimlane;fontStyle=1;align=center;verticalAlign=top;childLayout=stackLayout;horizontal=1;startSize=27.9;horizontalStack=0;resizeParent=1;resizeParentMax=0;resizeLast=0;collapsible=0;marginBottom=0;" parent="1" vertex="1">
          <mxGeometry x="80" y="130" width="362" height="147.9" as="geometry" />
        </mxCell>
        <mxCell id="3" value="- transactionData: data" style="text;strokeColor=none;fillColor=none;align=left;verticalAlign=top;spacingLeft=4;spacingRight=4;overflow=hidden;rotatable=0;points=[[0,0.5],[1,0.5]];portConstraint=eastwest;" parent="2" vertex="1">
          <mxGeometry y="27.9" width="362" height="28" as="geometry" />
        </mxCell>
        <mxCell id="4" value="- model: AWS Amazon Fraud Detector" style="text;strokeColor=none;fillColor=none;align=left;verticalAlign=top;spacingLeft=4;spacingRight=4;overflow=hidden;rotatable=0;points=[[0,0.5],[1,0.5]];portConstraint=eastwest;" parent="2" vertex="1">
          <mxGeometry y="55.9" width="362" height="28" as="geometry" />
        </mxCell>
        <mxCell id="5" value="- oversampler: SMOTE" style="text;strokeColor=none;fillColor=none;align=left;verticalAlign=top;spacingLeft=4;spacingRight=4;overflow=hidden;rotatable=0;points=[[0,0.5],[1,0.5]];portConstraint=eastwest;" parent="2" vertex="1">
          <mxGeometry y="83.9" width="362" height="28" as="geometry" />
        </mxCell>
        <mxCell id="6" style="line;strokeWidth=1;fillColor=none;align=left;verticalAlign=middle;spacingTop=-1;spacingLeft=3;spacingRight=3;rotatable=0;labelPosition=right;points=[];portConstraint=eastwest;strokeColor=inherit;" parent="2" vertex="1">
          <mxGeometry y="111.9" width="362" height="8" as="geometry" />
        </mxCell>
        <mxCell id="7" value="+detectFraud(transactionData: data) : : boolean" style="text;strokeColor=none;fillColor=none;align=left;verticalAlign=top;spacingLeft=4;spacingRight=4;overflow=hidden;rotatable=0;points=[[0,0.5],[1,0.5]];portConstraint=eastwest;" parent="2" vertex="1">
          <mxGeometry y="119.9" width="362" height="28" as="geometry" />
        </mxCell>
        <mxCell id="8" value="AIModel" style="swimlane;fontStyle=1;align=center;verticalAlign=top;childLayout=stackLayout;horizontal=1;startSize=27;horizontalStack=0;resizeParent=1;resizeParentMax=0;resizeLast=0;collapsible=0;marginBottom=0;" parent="1" vertex="1">
          <mxGeometry x="137" y="328" width="248" height="170" as="geometry" />
        </mxCell>
        <mxCell id="9" value="- features: array" style="text;strokeColor=none;fillColor=none;align=left;verticalAlign=top;spacingLeft=4;spacingRight=4;overflow=hidden;rotatable=0;points=[[0,0.5],[1,0.5]];portConstraint=eastwest;" parent="8" vertex="1">
          <mxGeometry y="27" width="248" height="27" as="geometry" />
        </mxCell>
        <mxCell id="10" value="- target: array" style="text;strokeColor=none;fillColor=none;align=left;verticalAlign=top;spacingLeft=4;spacingRight=4;overflow=hidden;rotatable=0;points=[[0,0.5],[1,0.5]];portConstraint=eastwest;" parent="8" vertex="1">
          <mxGeometry y="54" width="248" height="27" as="geometry" />
        </mxCell>
        <mxCell id="11" value="- hyperparameters: object" style="text;strokeColor=none;fillColor=none;align=left;verticalAlign=top;spacingLeft=4;spacingRight=4;overflow=hidden;rotatable=0;points=[[0,0.5],[1,0.5]];portConstraint=eastwest;" parent="8" vertex="1">
          <mxGeometry y="81" width="248" height="27" as="geometry" />
        </mxCell>
        <mxCell id="12" style="line;strokeWidth=1;fillColor=none;align=left;verticalAlign=middle;spacingTop=-1;spacingLeft=3;spacingRight=3;rotatable=0;labelPosition=right;points=[];portConstraint=eastwest;strokeColor=inherit;" parent="8" vertex="1">
          <mxGeometry y="108" width="248" height="8" as="geometry" />
        </mxCell>
        <mxCell id="13" value="+trainModel(data: array) : : void" style="text;strokeColor=none;fillColor=none;align=left;verticalAlign=top;spacingLeft=4;spacingRight=4;overflow=hidden;rotatable=0;points=[[0,0.5],[1,0.5]];portConstraint=eastwest;" parent="8" vertex="1">
          <mxGeometry y="116" width="248" height="27" as="geometry" />
        </mxCell>
        <mxCell id="14" value="+predict(data: array) : : array" style="text;strokeColor=none;fillColor=none;align=left;verticalAlign=top;spacingLeft=4;spacingRight=4;overflow=hidden;rotatable=0;points=[[0,0.5],[1,0.5]];portConstraint=eastwest;" parent="8" vertex="1">
          <mxGeometry y="143" width="248" height="27" as="geometry" />
        </mxCell>
        <mxCell id="15" value="SMOTE" style="swimlane;fontStyle=1;align=center;verticalAlign=top;childLayout=stackLayout;horizontal=1;startSize=31.5;horizontalStack=0;resizeParent=1;resizeParentMax=0;resizeLast=0;collapsible=0;marginBottom=0;" parent="1" vertex="1">
          <mxGeometry x="435" y="361" width="180" height="103.5" as="geometry" />
        </mxCell>
        <mxCell id="16" value="- data: array" style="text;strokeColor=none;fillColor=none;align=left;verticalAlign=top;spacingLeft=4;spacingRight=4;overflow=hidden;rotatable=0;points=[[0,0.5],[1,0.5]];portConstraint=eastwest;" parent="15" vertex="1">
          <mxGeometry y="31.5" width="180" height="32" as="geometry" />
        </mxCell>
        <mxCell id="17" style="line;strokeWidth=1;fillColor=none;align=left;verticalAlign=middle;spacingTop=-1;spacingLeft=3;spacingRight=3;rotatable=0;labelPosition=right;points=[];portConstraint=eastwest;strokeColor=inherit;" parent="15" vertex="1">
          <mxGeometry y="63.5" width="180" height="8" as="geometry" />
        </mxCell>
        <mxCell id="18" value="ApplySMOTE: Data" style="text;strokeColor=none;fillColor=none;align=left;verticalAlign=top;spacingLeft=4;spacingRight=4;overflow=hidden;rotatable=0;points=[[0,0.5],[1,0.5]];portConstraint=eastwest;" parent="15" vertex="1">
          <mxGeometry y="71.5" width="180" height="32" as="geometry" />
        </mxCell>
        <mxCell id="19" value="TransactionData" style="swimlane;fontStyle=1;align=center;verticalAlign=top;childLayout=stackLayout;horizontal=1;startSize=24.6;horizontalStack=0;resizeParent=1;resizeParentMax=0;resizeLast=0;collapsible=0;marginBottom=0;" parent="1" vertex="1">
          <mxGeometry x="170" y="548" width="182" height="186.6" as="geometry" />
        </mxCell>
        <mxCell id="20" value="- transactionId: string" style="text;strokeColor=none;fillColor=none;align=left;verticalAlign=top;spacingLeft=4;spacingRight=4;overflow=hidden;rotatable=0;points=[[0,0.5],[1,0.5]];portConstraint=eastwest;" parent="19" vertex="1">
          <mxGeometry y="24.6" width="182" height="25" as="geometry" />
        </mxCell>
        <mxCell id="21" value="- amount: number" style="text;strokeColor=none;fillColor=none;align=left;verticalAlign=top;spacingLeft=4;spacingRight=4;overflow=hidden;rotatable=0;points=[[0,0.5],[1,0.5]];portConstraint=eastwest;" parent="19" vertex="1">
          <mxGeometry y="49.6" width="182" height="25" as="geometry" />
        </mxCell>
        <mxCell id="22" value="- timestamp: Date" style="text;strokeColor=none;fillColor=none;align=left;verticalAlign=top;spacingLeft=4;spacingRight=4;overflow=hidden;rotatable=0;points=[[0,0.5],[1,0.5]];portConstraint=eastwest;" parent="19" vertex="1">
          <mxGeometry y="74.6" width="182" height="25" as="geometry" />
        </mxCell>
        <mxCell id="23" value="- merchant: string" style="text;strokeColor=none;fillColor=none;align=left;verticalAlign=top;spacingLeft=4;spacingRight=4;overflow=hidden;rotatable=0;points=[[0,0.5],[1,0.5]];portConstraint=eastwest;" parent="19" vertex="1">
          <mxGeometry y="99.6" width="182" height="25" as="geometry" />
        </mxCell>
        <mxCell id="24" value="- customer: string" style="text;strokeColor=none;fillColor=none;align=left;verticalAlign=top;spacingLeft=4;spacingRight=4;overflow=hidden;rotatable=0;points=[[0,0.5],[1,0.5]];portConstraint=eastwest;" parent="19" vertex="1">
          <mxGeometry y="124.6" width="182" height="25" as="geometry" />
        </mxCell>
        <mxCell id="25" value="- isFraudulent: boolean" style="text;strokeColor=none;fillColor=none;align=left;verticalAlign=top;spacingLeft=4;spacingRight=4;overflow=hidden;rotatable=0;points=[[0,0.5],[1,0.5]];portConstraint=eastwest;" parent="19" vertex="1">
          <mxGeometry y="149.6" width="182" height="25" as="geometry" />
        </mxCell>
        <mxCell id="26" style="line;strokeWidth=1;fillColor=none;align=left;verticalAlign=middle;spacingTop=-1;spacingLeft=3;spacingRight=3;rotatable=0;labelPosition=right;points=[];portConstraint=eastwest;strokeColor=inherit;" parent="19" vertex="1">
          <mxGeometry y="174.6" width="182" height="12" as="geometry" />
        </mxCell>
        <mxCell id="27" value="" style="curved=1;startArrow=none;endArrow=open;endSize=12;exitX=0.5;exitY=1;entryX=0.5;entryY=0;" parent="1" source="2" target="8" edge="1">
          <mxGeometry relative="1" as="geometry">
            <Array as="points" />
          </mxGeometry>
        </mxCell>
        <mxCell id="28" value="" style="curved=1;startArrow=none;endArrow=open;endSize=12;exitX=1;exitY=0.96;entryX=0.5;entryY=0;" parent="1" source="2" target="15" edge="1">
          <mxGeometry relative="1" as="geometry">
            <Array as="points">
              <mxPoint x="525" y="303" />
            </Array>
          </mxGeometry>
        </mxCell>
        <mxCell id="29" value="" style="curved=1;startArrow=none;endArrow=open;endSize=12;exitX=0.17;exitY=1;entryX=0;entryY=0.14;" parent="1" source="2" target="19" edge="1">
          <mxGeometry relative="1" as="geometry">
            <Array as="points">
              <mxPoint x="102" y="303" />
              <mxPoint x="102" y="523" />
            </Array>
          </mxGeometry>
        </mxCell>
        <mxCell id="30" value="" style="curved=1;startArrow=none;endArrow=open;endSize=12;exitX=0.5;exitY=1;entryX=0.5;entryY=0;" parent="1" source="8" target="19" edge="1">
          <mxGeometry relative="1" as="geometry">
            <Array as="points" />
          </mxGeometry>
        </mxCell>
        <mxCell id="31" value="" style="curved=1;startArrow=none;endArrow=open;endSize=12;exitX=0.5;exitY=1;entryX=1;entryY=0.28;" parent="1" source="15" target="19" edge="1">
          <mxGeometry relative="1" as="geometry">
            <Array as="points">
              <mxPoint x="525" y="523" />
            </Array>
          </mxGeometry>
        </mxCell>
        <mxCell id="Vi7fe35rfEiVxydAPoSF-31" value="Customer" style="swimlane;fontStyle=0;childLayout=stackLayout;horizontal=1;startSize=20;fillColor=none;horizontalStack=0;resizeParent=1;resizeParentMax=0;resizeLast=0;collapsible=1;marginBottom=0;whiteSpace=wrap;html=1;" parent="1" vertex="1">
          <mxGeometry x="462" y="592" width="200" height="152" as="geometry" />
        </mxCell>
        <mxCell id="Vi7fe35rfEiVxydAPoSF-32" value="-CustomerID&lt;div&gt;-Name&lt;/div&gt;&lt;div&gt;-email&lt;/div&gt;&lt;div&gt;-phone&lt;/div&gt;&lt;div&gt;&lt;span style=&quot;background-color: initial;&quot;&gt;-adress&lt;/span&gt;&lt;/div&gt;&lt;div&gt;&lt;span style=&quot;background-color: initial;&quot;&gt;-location&lt;/span&gt;&lt;/div&gt;" style="text;strokeColor=none;fillColor=none;align=left;verticalAlign=top;spacingLeft=4;spacingRight=4;overflow=hidden;rotatable=0;points=[[0,0.5],[1,0.5]];portConstraint=eastwest;whiteSpace=wrap;html=1;" parent="Vi7fe35rfEiVxydAPoSF-31" vertex="1">
          <mxGeometry y="20" width="200" height="100" as="geometry" />
        </mxCell>
        <mxCell id="Vi7fe35rfEiVxydAPoSF-33" value="+gettransactiondetails():Transaction" style="text;strokeColor=none;fillColor=none;align=left;verticalAlign=top;spacingLeft=4;spacingRight=4;overflow=hidden;rotatable=0;points=[[0,0.5],[1,0.5]];portConstraint=eastwest;whiteSpace=wrap;html=1;" parent="Vi7fe35rfEiVxydAPoSF-31" vertex="1">
          <mxGeometry y="120" width="200" height="32" as="geometry" />
        </mxCell>
        <mxCell id="Vi7fe35rfEiVxydAPoSF-35" value="" style="curved=1;startArrow=none;endArrow=open;endSize=12;exitX=1.011;exitY=0.08;entryX=0.5;entryY=0;entryDx=0;entryDy=0;exitDx=0;exitDy=0;exitPerimeter=0;" parent="1" source="19" target="Vi7fe35rfEiVxydAPoSF-31" edge="1">
          <mxGeometry relative="1" as="geometry">
            <Array as="points">
              <mxPoint x="535" y="533" />
            </Array>
            <mxPoint x="535" y="475" as="sourcePoint" />
            <mxPoint x="362" y="610" as="targetPoint" />
          </mxGeometry>
        </mxCell>
        <mxCell id="Vi7fe35rfEiVxydAPoSF-36" value="NotService" style="swimlane;fontStyle=0;childLayout=stackLayout;horizontal=1;startSize=20;fillColor=none;horizontalStack=0;resizeParent=1;resizeParentMax=0;resizeLast=0;collapsible=1;marginBottom=0;whiteSpace=wrap;html=1;" parent="1" vertex="1">
          <mxGeometry x="540" y="150" width="200" height="130" as="geometry" />
        </mxCell>
        <mxCell id="Vi7fe35rfEiVxydAPoSF-37" value="-emailservice: Email&lt;div&gt;-SMSservice: SMS&lt;/div&gt;" style="text;strokeColor=none;fillColor=none;align=left;verticalAlign=top;spacingLeft=4;spacingRight=4;overflow=hidden;rotatable=0;points=[[0,0.5],[1,0.5]];portConstraint=eastwest;whiteSpace=wrap;html=1;" parent="Vi7fe35rfEiVxydAPoSF-36" vertex="1">
          <mxGeometry y="20" width="200" height="50" as="geometry" />
        </mxCell>
        <mxCell id="Vi7fe35rfEiVxydAPoSF-38" value="+notify (Customer,message,string)&lt;div&gt;+SendEmail (string)&lt;/div&gt;&lt;div&gt;+SendSMS (string)&lt;/div&gt;" style="text;strokeColor=none;fillColor=none;align=left;verticalAlign=top;spacingLeft=4;spacingRight=4;overflow=hidden;rotatable=0;points=[[0,0.5],[1,0.5]];portConstraint=eastwest;whiteSpace=wrap;html=1;" parent="Vi7fe35rfEiVxydAPoSF-36" vertex="1">
          <mxGeometry y="70" width="200" height="60" as="geometry" />
        </mxCell>
        <mxCell id="Vi7fe35rfEiVxydAPoSF-40" value="" style="curved=1;startArrow=none;endArrow=open;endSize=12;exitX=1;exitY=0.96;entryX=0.5;entryY=0;entryDx=0;entryDy=0;" parent="1" target="Vi7fe35rfEiVxydAPoSF-36" edge="1">
          <mxGeometry relative="1" as="geometry">
            <Array as="points">
              <mxPoint x="520" y="60" />
            </Array>
            <mxPoint x="442" y="188.9" as="sourcePoint" />
            <mxPoint x="525" y="277.9" as="targetPoint" />
          </mxGeometry>
        </mxCell>
      </root>
    </mxGraphModel>
  </diagram>
</mxfile>
